<svg id="Layer_1" data-name="Layer 1" xmlns="http://www.w3.org/2000/svg" viewBox="0 0 237 276"><path d="M219.14,97c-.6-4-15.47-96.59-97.43-96.59h-6.42C33.33.42,18.45,93.06,17.86,97,16.9,103.42,1,264.29.34,271.14a3.5,3.5,0,0,0,7,.68c.17-1.67,16.55-167.54,17.48-173.77.56-3.7,14.51-90.63,90.51-90.63h6.42c76,0,90,86.93,90.51,90.63.93,6.23,17.31,172.1,17.48,173.77a3.5,3.5,0,0,0,3.48,3.16,1.94,1.94,0,0,0,.34,0,3.49,3.49,0,0,0,3.14-3.82C236,264.29,220.1,103.41,219.14,97Z"/><path d="M68.21,93.28a3.5,3.5,0,0,0,3.48-3.19c0-.24,2.29-24.49,12.91-41.78a3.5,3.5,0,1,0-6-3.67C67.16,63.33,64.81,88.41,64.72,89.47a3.5,3.5,0,0,0,3.17,3.8Z"/><path d="M28.24,200.84A3.51,3.51,0,0,0,24.45,204l-5.94,67.76a3.51,3.51,0,0,0,3.19,3.79H22a3.5,3.5,0,0,0,3.48-3.19l5.94-67.75A3.52,3.52,0,0,0,28.24,200.84Z"/><path d="M98.64,127.26a3.51,3.51,0,0,0-1.46-4.73,29.18,29.18,0,0,0-12.06-3.16,31.21,31.21,0,0,0-12.39,3.13,3.5,3.5,0,0,0,1.58,6.62,3.59,3.59,0,0,0,1.58-.37,26.28,26.28,0,0,1,3.85-1.48,7.22,7.22,0,0,0-.42,2.38,7,7,0,1,0,13.79-1.31l.79.37A3.5,3.5,0,0,0,98.64,127.26Z"/><path d="M165.13,127.26a3.51,3.51,0,0,0-1.45-4.73,29.31,29.31,0,0,0-12.07-3.16,31.21,31.21,0,0,0-12.39,3.13,3.5,3.5,0,0,0,1.58,6.62,3.59,3.59,0,0,0,1.58-.37,21.53,21.53,0,0,1,2.34-1,6.88,6.88,0,0,0-.26,1.88,7,7,0,1,0,13.91,0,7.2,7.2,0,0,0-.27-1.93,23.5,23.5,0,0,1,2.29,1A3.5,3.5,0,0,0,165.13,127.26Z"/><path d="M126.9,201.71a21,21,0,0,1-8.22,2.19,23,23,0,0,1-8.64-2.22,3.5,3.5,0,0,0-3.16,6.25,29.93,29.93,0,0,0,11.8,3,27.93,27.93,0,0,0,11.5-3,3.5,3.5,0,0,0-3.28-6.19Z"/><path d="M136.73,195A3.51,3.51,0,0,0,134,190.9a93,93,0,0,0-15.67-1.54,84.19,84.19,0,0,0-15.16,1.55,3.5,3.5,0,1,0,1.41,6.85,79.47,79.47,0,0,1,13.75-1.4,87.23,87.23,0,0,1,14.32,1.41A3.5,3.5,0,0,0,136.73,195Z"/><path d="M118.52,172a25.13,25.13,0,0,0,10.56-2.76,3.5,3.5,0,1,0-3.29-6.18,18.5,18.5,0,0,1-7.27,1.94,20.22,20.22,0,0,1-7.67-2,3.5,3.5,0,1,0-3.15,6.25A27.31,27.31,0,0,0,118.52,172Z"/><path d="M103.58,116.16a3.49,3.49,0,0,0-1.71-4.64,46.84,46.84,0,0,0-17.75-3.88c-8.78,0-18.3,3.63-18.7,3.79A3.5,3.5,0,1,0,67.94,118c.08,0,8.72-3.32,16.18-3.32a40.4,40.4,0,0,1,14.81,3.23,3.51,3.51,0,0,0,4.65-1.71Z"/><path d="M168.27,118.19a3.5,3.5,0,0,0,1.48-6.67A46.91,46.91,0,0,0,152,107.64c-8.79,0-18.3,3.63-18.71,3.79a3.5,3.5,0,0,0,2.52,6.53c.09,0,8.73-3.32,16.19-3.32a40.24,40.24,0,0,1,14.8,3.23A3.51,3.51,0,0,0,168.27,118.19Z"/><path d="M189.48,122.13a3.5,3.5,0,0,0-3.75,3.23c-4.89,65.3-44.14,98.75-60.79,110.1a12,12,0,0,1-13.63,0c-19.39-13.22-63.8-52.23-61.18-130.53H84.47l.58-2.8c1-4.77,3-14.14,5.24-22.64.44,7.34.9,15.69,1.24,22.12l.18,3.32h56.75l.64-2.7a51.57,51.57,0,0,1,3.32-9l4.22,11.75h29.67a3.5,3.5,0,0,0,0-7H161.56l-4.94-13.74A3.67,3.67,0,0,0,153,81.75c-2,.11-3.48,1.29-6.53,7.7A72.13,72.13,0,0,0,143,97.93H98.34c-.2-3.73-.55-10.11-.92-16.49-.34-5.76-.63-10.36-.86-13.66-.13-1.89-.25-3.47-.36-4.58-.18-2-.39-4.25-3-4.83l-2.59-.57-1.27,2.32c-3.9,7.15-8.87,29.54-10.62,37.81H46.36a3.5,3.5,0,0,0-3.5,3.5,3.45,3.45,0,0,0,.34,1.47C41,154.24,58.27,189.67,76.59,212.52a3.51,3.51,0,0,0-.47,1.66l-1.21,57.1a3.5,3.5,0,0,0,3.42,3.57h.08a3.5,3.5,0,0,0,3.5-3.42L83,220a141.5,141.5,0,0,0,24.37,21.25,19,19,0,0,0,21.51,0,141.89,141.89,0,0,0,25.29-22.34l-1.07,50.46a3.5,3.5,0,0,0,3.43,3.57h.08a3.49,3.49,0,0,0,3.49-3.42l1.21-57.1a3.5,3.5,0,0,0-.37-1.61c14.89-19.18,28.92-46.9,31.77-84.93A3.5,3.5,0,0,0,189.48,122.13Z"/></svg>