<svg xmlns="http://www.w3.org/2000/svg" viewBox="0 0 237 63"><path d="M88.69,36.26a7.22,7.22,0,0,1-.54,2.9,5.76,5.76,0,0,1-1.51,2.14,6.48,6.48,0,0,1-2.32,1.33,9,9,0,0,1-2.86.45H71.4V19.92H81a8.9,8.9,0,0,1,4,.83,5.78,5.78,0,0,1,2.52,2.35,7,7,0,0,1,.88,3.53,4.64,4.64,0,0,1-.83,2.84,6.74,6.74,0,0,1-1.71,1.74,7,7,0,0,1,2,1.8A5.18,5.18,0,0,1,88.69,36.26Zm-6-9.34a2,2,0,0,0-.48-1.33A2,2,0,0,0,80.62,25H77.08v3.76h3.54a2,2,0,0,0,1.56-.55,1.93,1.93,0,0,0,.49-1.32Zm.34,9a2.18,2.18,0,0,0-.49-1.43A2,2,0,0,0,81,33.91H77.08v4h3.84a2,2,0,0,0,1.58-.6,2.19,2.19,0,0,0,.5-1.38Z"/><path d="M108.85,43H93.11V19.92h15.74V25h-10v3.9h8.59v5H98.81V38h10Z"/><path d="M129.52,36a6.4,6.4,0,0,1-1.2,3.92,7.34,7.34,0,0,1-3.24,2.5,11.57,11.57,0,0,1-4.5.85,16.58,16.58,0,0,1-5-.68,9.16,9.16,0,0,1-3.77-2.37l3.65-3.66a5,5,0,0,0,2.26,1.25,11,11,0,0,0,2.91.39c2.21,0,3.32-.69,3.32-2.08a1.93,1.93,0,0,0-.46-1.36,2.51,2.51,0,0,0-1.52-.62l-2.8-.4a7.75,7.75,0,0,1-4.65-2,6.34,6.34,0,0,1-1.6-4.74,6.76,6.76,0,0,1,3.94-6.37,10,10,0,0,1,4.54-.93,13.9,13.9,0,0,1,4.48.66,8.5,8.5,0,0,1,3.33,2.1L125.6,26a4,4,0,0,0-1.92-1.13,11.52,11.52,0,0,0-2.48-.24,3,3,0,0,0-2.08.65,2,2,0,0,0-.72,1.49,1.51,1.51,0,0,0,.46,1.08,2.75,2.75,0,0,0,1.59.68l2.8.38a8,8,0,0,1,4.56,1.92A5,5,0,0,1,129.12,33,9.53,9.53,0,0,1,129.52,36Z"/><path d="M151,27.37a7.5,7.5,0,0,1-.92,3.65,7.2,7.2,0,0,1-2.67,2.75,8.26,8.26,0,0,1-4.27,1h-3.48V43H134V19.92h9.17a8.26,8.26,0,0,1,4.27,1,7.09,7.09,0,0,1,2.72,2.74A7.59,7.59,0,0,1,151,27.37Zm-5.67,0a2.34,2.34,0,0,0-.31-1.16,2.22,2.22,0,0,0-.86-.86,2.63,2.63,0,0,0-1.32-.32H139.6V29.7h3.23a2.63,2.63,0,0,0,1.32-.32,2.22,2.22,0,0,0,.86-.86,2.4,2.4,0,0,0,.31-1.14Z"/><path d="M171.57,31.5v.78a24.81,24.81,0,0,1-.14,3.34,9.59,9.59,0,0,1-.64,2.7,7,7,0,0,1-1.55,2.35,8.57,8.57,0,0,1-6.48,2.6,10.39,10.39,0,0,1-2.55-.29,8,8,0,0,1-2.09-.87,9.38,9.38,0,0,1-1.82-1.44,6.84,6.84,0,0,1-1.9-3.47,24.58,24.58,0,0,1-.41-4.92V30.72a24.74,24.74,0,0,1,.41-4.93,6.85,6.85,0,0,1,1.95-3.47,8.65,8.65,0,0,1,2.85-2,10.63,10.63,0,0,1,7.25,0,8.94,8.94,0,0,1,2.84,1.95,6.8,6.8,0,0,1,1.56,2.36,10.49,10.49,0,0,1,.64,2.71c.1,1.11.14,2.23.13,3.34Zm-5.69,0a25.47,25.47,0,0,0-.2-4,3.8,3.8,0,0,0-.64-1.65,2.34,2.34,0,0,0-.92-.73,3.06,3.06,0,0,0-1.36-.29,3,3,0,0,0-1.36.2,2.72,2.72,0,0,0-1,.74,3.36,3.36,0,0,0-.47.9,8.4,8.4,0,0,0-.28,1.64c-.06.73-.1,1.78-.1,3.15a26.73,26.73,0,0,0,.1,3.14,8.18,8.18,0,0,0,.28,1.63,3.3,3.3,0,0,0,.47.89,3,3,0,0,0,4.23.33h0a2.57,2.57,0,0,0,.33-.33,4.16,4.16,0,0,0,.64-1.66A25,25,0,0,0,165.88,31.5Z"/><path d="M195.49,43h-6.62l-5.34-9.5-2,2.24V43h-5.65V19.92h5.65v8.2l6.7-8.2h7l-7.91,9.37Z"/><path d="M214.16,43H198.4V19.92h15.75V25h-10v3.9h8.59v5h-8.59V38h10Z"/><path d="M236.6,43h-5l-7.42-11.64V43h-5.69V19.92h5l7.41,11.64V19.92h5.69Z"/><path d="M54.13,9.24a31.51,31.51,0,0,0-44.51,0h0l-.4.41h0A31.48,31.48,0,0,0,31.88,63h0a31.19,31.19,0,0,0,22.24-9.21h0a31.51,31.51,0,0,0,0-44.52m-2,2a28.76,28.76,0,0,1,0,40.61,24.22,24.22,0,0,1-39-6.68l.05-.14c-.11-.24-.22-.48-.32-.72l-.17-.4c-.07-.16-.13-.33-.19-.49l-.23-.65-.1-.29c-.1-.28-.18-.56-.27-.85V41.5c-.11-.33-.19-.67-.28-1h0a24.26,24.26,0,0,1,3.28-19h0c.18-.28.38-.55.58-.83l.12-.18.52-.69.23-.28.52-.62.26-.3c.28-.3.55-.59.85-.88l.53-.51h0l.47-.4.11-.09.41-.32.19-.15L20,16l.28-.2.27-.17L21,15.4l.19-.11.47-.26.11-.06.57-.28h0a14.63,14.63,0,0,1,2.73-1h.08l.62-.13H26l.43-.07.67-.08h0c.5,0,1-.07,1.5-.07A15.17,15.17,0,0,1,43.4,24.61a13.2,13.2,0,0,0-2-2.58A13.4,13.4,0,0,0,22.45,22L22.4,22h0A17.94,17.94,0,0,0,47.75,47.38l1-1a27,27,0,0,0-2-38.13,26.67,26.67,0,0,0-4.79-3.44l-.32-.18L41,4.3l-.15-.08a28.36,28.36,0,0,1,11.35,7M24.34,24h0a10.59,10.59,0,1,1-.1.1.47.47,0,0,0,.1-.1M3.16,31.49a28.59,28.59,0,0,1,8.38-20.27h0l.7-.67.18-.17L13,9.87l.39-.31.48-.37.49-.38.34-.24.66-.46L15.53,8l.87-.58h0A24.22,24.22,0,0,1,29.83,4.13h0l1,.07H31l1.07.13h.09l1.1.19h0l1.13.26h.07L35.4,5h.17l.83.27.32.1.63.24.5.19.41.17.73.32.11.06A24.22,24.22,0,0,1,50.48,38.67l0,0a24.25,24.25,0,0,1-3.83,5.72c-.27.3-.56.6-.85.89a15.18,15.18,0,0,1-25.44-7,13.43,13.43,0,0,0,18.37,4.78A13,13,0,0,0,41.4,41h0l.13-.13.19-.21.39-.41.18-.21.42-.49.12-.15.44-.58v-.07a17.9,17.9,0,0,0-4.17-25A18.14,18.14,0,0,0,34,11.24h-.09l-.69-.19h-.16l-.69-.15h-.16l-.81-.33h-.06a18.23,18.23,0,0,0-3.54-.17h0l-.82.06-.65.08h-.19a17.59,17.59,0,0,0-5.74,1.87h0l-.67.37-.12.07-.54.34-.23.15-.44.29-.33.23-.3.23-.42.33-.18.16-.5.43-.06.06c-.19.18-.39.36-.56.55s-.65.66-1,1l-.26.3c-.22.24-.44.48-.64.73l-.21.27c-.21.27-.43.54-.63.81l-.1.16c-.23.32-.46.64-.67,1h0a27,27,0,0,0-3,23.68v.1c.1.31.22.62.35.93l.13.33c.09.22.19.44.29.66l.26.6.17.34A26.82,26.82,0,0,0,23.06,58.84,28.78,28.78,0,0,1,3.16,31.49M26.24,33a1.54,1.54,0,0,1,0-3.07h4.1v-4.1a1.54,1.54,0,0,1,3.08,0V30h4.09a1.54,1.54,0,0,1,0,3.07H33.4v4.1a1.54,1.54,0,0,1-3.07,0V33h-4.1"/></svg>