<svg id="Layer_1" data-name="Layer 1" xmlns="http://www.w3.org/2000/svg" viewBox="0 0 340 204"><path d="M339.06,45.85C337,39.23,333,34.6,327.26,32.07c-9.54-4.22-21.48-1.24-27.74.91a6.92,6.92,0,0,0-6.62-4.63l-10.41.14c-2.66-7.35-9-13.37-17.88-16.57C202-10.61,155.76,4.41,118.6,16.47c-6.68,2.17-13,4.21-19,5.9L57.26.71,56.76.5A8,8,0,0,0,46.2,8.08V79.72a8,8,0,0,0,10.52,7.59L100.51,64c5.78,1.41,11.8,3.05,18.14,4.78,19.08,5.21,40.42,11,63.84,12.76l-1,15.65-.25,0-2-.16h-.55a7.21,7.21,0,0,0-5.47,2.54,7.94,7.94,0,0,0-1.71,6.31l1.29,8a7.41,7.41,0,0,0,2.67,4.65l4.43,4.19-3.37,54c-1,13.51,7.58,25.4,19.45,27.06a20.88,20.88,0,0,0,2.73.19,20.5,20.5,0,0,0,12.37-4.25,25.79,25.79,0,0,0,9.61-17L236.08,77.18a171.45,171.45,0,0,0,28.75-10C278.67,61,282.9,52.63,283.72,46l9.41-.12a6.9,6.9,0,0,0,6.68-5.5c4.32-1.67,16.22-5.58,24.64-1.85,3.85,1.71,6.45,4.81,7.95,9.49,2.73,8.59-4.59,19.3-13.08,31.7-11.48,16.79-25.77,37.68-17.15,61.05a3.5,3.5,0,0,0,6.57-2.42c-7.37-20,5.24-38.41,16.36-54.68C334.22,70.28,342.84,57.69,339.06,45.85Zm-158.87,67.4-.27-.26c-.09,0-.16-.14-.19-.31l-1.29-8c-.05-.35.09-.73.27-.73h0l2,.16ZM95.81,58.56,54.35,80.71a1,1,0,0,1-.73-.18,1,1,0,0,1-.42-.81V8.08a1,1,0,0,1,.42-.81,1,1,0,0,1,.58-.2l.16,0,41.45,21.2Zm118,123.07a18.77,18.77,0,0,1-6.91,12.46,13.1,13.1,0,0,1-9.9,2.7c-8.23-1.15-14.14-9.77-13.44-19.65l5.95-95.23c2.19.08,4.38.14,6.61.14a165,165,0,0,0,32.68-3.22ZM262,60.79c-55.18,24.8-103,11.72-141.46,1.22-6.08-1.66-11.86-3.24-17.46-4.62V28.68c5.66-1.63,11.54-3.54,17.72-5.55C156.91,11.4,201.9-3.21,262.24,18.51c6.61,2.38,13.64,7.8,14.54,16.09l.11,7.6v1.09C276.89,50.45,271.86,56.34,262,60.79ZM283.89,39V36.4c0-.31,0-.62,0-.93l9.06-.12,0,3.48Z"/><path d="M27.75,44.42a3.5,3.5,0,0,0,0-7H3.53a3.5,3.5,0,0,0,0,7Z"/><path d="M30.28,15.23,7,8.37a3.5,3.5,0,0,0-2,6.72L28.3,21.94a3.4,3.4,0,0,0,1,.15,3.5,3.5,0,0,0,1-6.86Z"/><path d="M28.3,60.47,5.06,67.32a3.5,3.5,0,0,0,1,6.86A3.81,3.81,0,0,0,7,74l23.24-6.86a3.5,3.5,0,0,0-2-6.71Z"/></svg>