<svg xmlns="http://www.w3.org/2000/svg" viewBox="0 0 178 36"><path d="M.1.46H6.23c2.24,0,4.53,1.12,4.53,3.29,0,2.4-2,3.2-5.78,3.2H2.92v4.61H.1ZM2.92,6.23H4.31c2.45,0,3.63-.89,3.63-2.79C7.94,2.3,7.18,1,4.24,1H2.92Z"/><path d="M15.29,11.56V.46h6.47C24.49.46,26,2,26,3.73S24.35,6.16,22.1,6.37l4,5.19H23L18.89,5.87h.19c2.49,0,4.11-.71,4.11-2.38,0-1.23-.81-2.48-3.56-2.48H18.11V11.56Z"/><path d="M37.22.16c4.35,0,7.44,2.58,7.44,5.85s-3.09,5.85-7.44,5.85S29.8,9.28,29.8,6,32.9.16,37.22.16m0,11c3.61,0,4.42-3,4.42-5.14S40.83.87,37.22.87s-4.39,3-4.39,5.14.79,5.14,4.39,5.14"/><polygon points="49.72 11.56 49.72 0.46 58.32 0.46 58.32 1.18 52.54 1.18 52.54 5.46 57.81 5.46 57.81 6.18 52.54 6.18 52.54 11.56 49.72 11.56"/><polygon points="63.1 11.56 63.1 0.46 71.96 0.46 71.96 1.18 65.92 1.18 65.92 5.46 71.61 5.46 71.61 6.18 65.92 6.18 65.92 10.84 72.05 10.84 72.05 11.56 63.1 11.56"/><path d="M78.2,9.57A3.63,3.63,0,0,0,81.3,11C82.59,11,84,10.22,84,9.07c0-3.21-7-1.69-7-5.66C77,1.63,79,.16,81.76.16a5.46,5.46,0,0,1,4.5,2l-1,.46A3.37,3.37,0,0,0,82.22,1C80.67,1,79.77,1.9,79.77,3c0,2.6,7,1.51,7,5.52,0,2-2.4,3.38-4.92,3.38-2,0-3.67-.44-4.71-1.72Z"/><path d="M93,9.57A3.62,3.62,0,0,0,96.06,11c1.3,0,2.68-.77,2.68-1.92,0-3.21-7-1.69-7-5.66,0-1.78,2-3.25,4.81-3.25a5.46,5.46,0,0,1,4.5,2l-1,.46A3.37,3.37,0,0,0,97,1C95.44,1,94.54,1.9,94.54,3c0,2.6,7,1.51,7,5.52,0,2-2.4,3.38-4.92,3.38-2,0-3.67-.44-4.71-1.72Z"/><rect x="107.06" y="0.46" width="2.82" height="11.09"/><path d="M122.36.16c4.35,0,7.45,2.58,7.45,5.85s-3.1,5.85-7.45,5.85S115,9.28,115,6,118,.16,122.36.16m0,11c3.61,0,4.42-3,4.42-5.14S126,.87,122.36.87,118,3.85,118,6s.79,5.14,4.39,5.14"/><polygon points="134.75 11.56 134.75 0.46 137.27 0.46 145.1 8.1 145.15 8.1 145.15 0.46 146.35 0.46 146.35 11.56 145.1 11.56 136 2.71 135.95 2.71 135.95 11.56 134.75 11.56"/><path d="M163.46,11.56h-2.89L159,8.66h-5.15l-1.5,2.9H151L157.1.16h.05Zm-7.08-7.69-2.17,4.07h4.37Z"/><polygon points="168.33 11.56 168.33 0.46 171.15 0.46 171.15 10.68 177.16 10.68 177.16 11.56 168.33 11.56"/><path d="M.26,18.46H15.61c4.25,0,6.31,1.15,6.31,4.56,0,3-1.08,3.56-2.57,4v.07c2.33.29,3.2,1.54,3.2,4.15,0,3.82-2.26,4.61-5.31,4.61H.26ZM5.6,25.35H15c1,0,1.56-.36,1.56-1.34S16,22.64,15,22.64H5.6Zm0,6.32h9.55c1.15,0,1.92-.27,1.92-1.28,0-1.17-.77-1.44-1.92-1.44H5.6Z"/><polygon points="35.92 29.79 26.29 18.46 32.73 18.46 38.59 25.57 44.44 18.46 50.88 18.46 41.25 29.79 41.25 35.84 35.92 35.84 35.92 29.79"/><polygon points="69.03 18.46 87.18 18.46 87.18 22.64 74.36 22.64 74.36 25.88 86.58 25.88 86.58 29.91 74.36 29.91 74.36 35.84 69.03 35.84 69.03 18.46"/><path d="M99,18.46h6.94l9.55,17.38h-5.93l-1.65-3.07H97.05l-1.56,3.07H89.54ZM99.05,29h6.81l-3.45-6.54Z"/><polygon points="119.5 18.46 127.69 18.46 133.72 29.65 139.74 18.46 147.93 18.46 147.93 35.84 142.75 35.84 142.75 23.36 142.7 23.36 135.71 35.84 131.72 35.84 124.74 23.36 124.69 23.36 124.69 35.84 119.5 35.84 119.5 18.46"/><path d="M161.4,18.46h6.94l9.56,17.38H172l-1.66-3.07H159.5l-1.56,3.07H152ZM161.5,29h6.82l-3.46-6.54Z"/></svg>