<svg xmlns="http://www.w3.org/2000/svg" viewBox="0 0 300 80"><path d="M205.13,21.88c-1.28,8.38-7.67,8.38-13.86,8.38h-3.52l2.47-15.64A2,2,0,0,1,192.14,13h1.61c4.22,0,8.19,0,10.25,2.4,1.22,1.44,1.59,3.57,1.13,6.5M202.43,0H179.1a3.25,3.25,0,0,0-3.21,2.74L166.46,62.6a2,2,0,0,0,1.63,2.23l.29,0h12a2.28,2.28,0,0,0,2.24-1.91l2.68-17a3.23,3.23,0,0,1,3.2-2.74h7.38c15.38,0,24.24-7.44,26.56-22.18,1.05-6.45,0-11.51-3-15.06-3.32-3.9-9.2-6-17-6" fill="#009cde"/><path d="M38.69,21.88c-1.28,8.38-7.67,8.38-13.86,8.38H21.31l2.47-15.64A2,2,0,0,1,25.7,13h1.61c4.21,0,8.19,0,10.24,2.4,1.23,1.44,1.6,3.57,1.14,6.5M36,0H12.66a3.24,3.24,0,0,0-3.2,2.74L0,62.6a1.94,1.94,0,0,0,1.62,2.22,1.53,1.53,0,0,0,.3,0H13.09a3.24,3.24,0,0,0,3.2-2.74L18.84,46A3.23,3.23,0,0,1,22,43.23h7.38c15.38,0,24.25-7.44,26.56-22.18C57,14.6,56,9.54,53,6c-3.32-3.9-9.2-6-17-6M90.17,43.37A12.46,12.46,0,0,1,77.56,54c-3.24,0-5.84-1-7.5-3a9.44,9.44,0,0,1-1.75-7.85A12.49,12.49,0,0,1,80.83,32.42a9.41,9.41,0,0,1,7.45,3,9.62,9.62,0,0,1,1.89,7.9m15.58-21.76H94.57a1.94,1.94,0,0,0-1.92,1.65l-.49,3.12-.78-1.13c-2.42-3.51-7.82-4.69-13.2-4.69-12.35,0-22.89,9.36-24.94,22.48-1.07,6.55.44,12.8,4.16,17.17,3.41,4,8.27,5.68,14.07,5.68A21.4,21.4,0,0,0,86.94,59.5l-.5,3.1a2,2,0,0,0,1.61,2.23l.31,0H98.42a3.25,3.25,0,0,0,3.21-2.74l6-38.25a2,2,0,0,0-1.62-2.22,1.62,1.62,0,0,0-.31,0" fill="#003087"/><path d="M256.61,43.37A12.46,12.46,0,0,1,244,54c-3.24,0-5.84-1-7.5-3a9.48,9.48,0,0,1-1.76-7.85,12.51,12.51,0,0,1,12.53-10.75,9.41,9.41,0,0,1,7.45,3,9.62,9.62,0,0,1,1.89,7.9m15.57-21.76H261a2,2,0,0,0-1.93,1.65l-.48,3.12-.78-1.13c-2.42-3.51-7.82-4.69-13.2-4.69-12.35,0-22.89,9.36-25,22.48-1.06,6.55.46,12.8,4.17,17.17,3.41,4,8.27,5.68,14.07,5.68a21.37,21.37,0,0,0,15.47-6.39l-.5,3.1a2,2,0,0,0,1.61,2.23l.31,0h10.06a3.26,3.26,0,0,0,3.21-2.74l6-38.25a2,2,0,0,0-1.63-2.22,1.51,1.51,0,0,0-.3,0" fill="#009cde"/><path d="M165.26,21.62H154A3.22,3.22,0,0,0,151.35,23l-15.5,22.82-6.56-21.93a3.28,3.28,0,0,0-3.11-2.32h-11a2,2,0,0,0-2,1.95,1.9,1.9,0,0,0,.11.63l12.36,36.3L114,76.9A1.94,1.94,0,0,0,115.62,80h11.22a3.27,3.27,0,0,0,2.67-1.39l37.34-53.91a1.94,1.94,0,0,0-1.59-3.05" fill="#003087"/><path d="M285.35,1.68,275.77,62.6a2,2,0,0,0,1.63,2.23l.3,0h9.63a3.24,3.24,0,0,0,3.2-2.74L300,2.28A2,2,0,0,0,298.36.05l-.31,0H287.28a2,2,0,0,0-1.93,1.64" fill="#009cde"/></svg>