<svg id="Livello_1" data-name="Livello 1" xmlns="http://www.w3.org/2000/svg" viewBox="0 0 17 25"><path d="M13,15.21l-2.61,1.3c-.46.22-1.7-1-2.85-3.25s-1.33-3.77-1-4L9.3,8,5.16.21,2.64,1.52C.89,2.45,0,4.2,0,6.74c0,3.31,1.53,7.74,4,11.55,2.67,4.13,5.75,6.5,8.45,6.5a3.56,3.56,0,0,0,1.81-.42c.19-.07.72-.32,2.5-1.2l.22-.12Zm-.51,8.08c-4,0-9.07-7.35-10.55-13.43-.87-3.55-.37-6.1,1.36-7l1.37-.69C6.31,5.5,7,6.82,7.31,7.35L6,8c-.92.5-1.19,1.75-.74,3.53.74,2.95,3.22,6.54,5.06,6.54a1.48,1.48,0,0,0,.71-.13l1.28-.68,2.57,5.06L13.64,23A2.47,2.47,0,0,1,12.46,23.29Z"/></svg>