<svg xmlns="http://www.w3.org/2000/svg" viewBox="0 0 32 35"><path d="M30.55,9.07a2.08,2.08,0,0,0-2-2H22.23V6.57a6.23,6.23,0,0,0-12.46,0v.51H3.48a2.07,2.07,0,0,0-2,2L.15,32.59A1.86,1.86,0,0,0,.68,34a2.07,2.07,0,0,0,1.49.65H29.83A2.07,2.07,0,0,0,31.32,34a1.9,1.9,0,0,0,.53-1.42ZM21.33,11.4H22a.91.91,0,0,1,.55.83.9.9,0,0,1-1.8,0A.91.91,0,0,1,21.33,11.4ZM11.21,6.57a4.79,4.79,0,0,1,9.58,0v.51H11.21ZM10,11.4h.7a.91.91,0,0,1,.55.83.9.9,0,0,1-1.8,0A.91.91,0,0,1,10,11.4ZM30.28,33a.62.62,0,0,1-.45.2H2.17a.62.62,0,0,1-.45-.2.46.46,0,0,1-.14-.35L2.89,9.15a.63.63,0,0,1,.59-.63H9.77V10a2.34,2.34,0,1,0,1.44.11V8.52h9.58v1.54A2.34,2.34,0,1,0,22.23,10V8.52h6.29a.64.64,0,0,1,.59.63l1.31,23.52A.5.5,0,0,1,30.28,33Z"/></svg>