<svg id="Layer_1" data-name="Layer 1" xmlns="http://www.w3.org/2000/svg" viewBox="0 0 243 243"><path d="M242.62,225.09,234.56,17.65A17,17,0,0,0,217.61.8H25.39a17,17,0,0,0-17,16.85L.38,225.09v.17A17,17,0,0,0,17.32,242.2H225.68a17,17,0,0,0,16.94-16.94Zm-16.94,8.59H17.32a8.42,8.42,0,0,1-8.42-8.35L17,17.91v-.17a8.44,8.44,0,0,1,8.43-8.42H217.61A8.44,8.44,0,0,1,226,17.74v.17l8.06,207.42A8.42,8.42,0,0,1,225.68,233.68Z" /><path d="M170,39.23H158.43a4.26,4.26,0,0,0,0,8.52h7.27V80.42a36.54,36.54,0,0,1-36.5,36.5H113.8a36.54,36.54,0,0,1-36.5-36.5V47.75h7.27a4.26,4.26,0,1,0,0-8.52H73a4.26,4.26,0,0,0-4.26,4.26V80.42a45.07,45.07,0,0,0,45,45h15.4a45.07,45.07,0,0,0,45-45V43.49A4.26,4.26,0,0,0,170,39.23Z" /></svg>